<mxfile host="app.diagrams.net" modified="2023-12-20T05:19:38.100Z" agent="Mozilla/5.0 (X11; Linux x86_64; rv:120.0) Gecko/20100101 Firefox/120.0" etag="guO7vgF6pziWawEEpQrO" version="22.1.11" type="device">
  <diagram name="Page-1" id="oEJwz7UinkSHDHlLdg6G">
    <mxGraphModel dx="1820" dy="1011" grid="1" gridSize="10" guides="1" tooltips="1" connect="1" arrows="1" fold="1" page="1" pageScale="1" pageWidth="1654" pageHeight="1169" math="0" shadow="0">
      <root>
        <mxCell id="0" />
        <mxCell id="1" parent="0" />
        <mxCell id="-HQPXXyvILlcxyO6ic3q-17" value="" style="group" vertex="1" connectable="0" parent="1">
          <mxGeometry x="447" y="435" width="760" height="300" as="geometry" />
        </mxCell>
        <mxCell id="-HQPXXyvILlcxyO6ic3q-1" value="" style="outlineConnect=0;dashed=0;verticalLabelPosition=bottom;verticalAlign=top;align=center;html=1;shape=mxgraph.aws3.lambda_function;fillColor=#F58534;gradientColor=none;" vertex="1" parent="-HQPXXyvILlcxyO6ic3q-17">
          <mxGeometry y="230" width="70" height="70" as="geometry" />
        </mxCell>
        <mxCell id="-HQPXXyvILlcxyO6ic3q-2" value="" style="sketch=0;points=[[0,0,0],[0.25,0,0],[0.5,0,0],[0.75,0,0],[1,0,0],[0,1,0],[0.25,1,0],[0.5,1,0],[0.75,1,0],[1,1,0],[0,0.25,0],[0,0.5,0],[0,0.75,0],[1,0.25,0],[1,0.5,0],[1,0.75,0]];outlineConnect=0;fontColor=#232F3E;fillColor=#7AA116;strokeColor=#ffffff;dashed=0;verticalLabelPosition=bottom;verticalAlign=top;align=center;html=1;fontSize=12;fontStyle=0;aspect=fixed;shape=mxgraph.aws4.resourceIcon;resIcon=mxgraph.aws4.s3;" vertex="1" parent="-HQPXXyvILlcxyO6ic3q-17">
          <mxGeometry y="30" width="80" height="80" as="geometry" />
        </mxCell>
        <mxCell id="-HQPXXyvILlcxyO6ic3q-3" value="" style="sketch=0;points=[[0,0,0],[0.25,0,0],[0.5,0,0],[0.75,0,0],[1,0,0],[0,1,0],[0.25,1,0],[0.5,1,0],[0.75,1,0],[1,1,0],[0,0.25,0],[0,0.5,0],[0,0.75,0],[1,0.25,0],[1,0.5,0],[1,0.75,0]];outlineConnect=0;fontColor=#232F3E;fillColor=#8C4FFF;strokeColor=#ffffff;dashed=0;verticalLabelPosition=bottom;verticalAlign=top;align=center;html=1;fontSize=12;fontStyle=0;aspect=fixed;shape=mxgraph.aws4.resourceIcon;resIcon=mxgraph.aws4.glue;" vertex="1" parent="-HQPXXyvILlcxyO6ic3q-17">
          <mxGeometry x="240" y="30" width="80" height="80" as="geometry" />
        </mxCell>
        <mxCell id="-HQPXXyvILlcxyO6ic3q-4" value="" style="sketch=0;points=[[0,0,0],[0.25,0,0],[0.5,0,0],[0.75,0,0],[1,0,0],[0,1,0],[0.25,1,0],[0.5,1,0],[0.75,1,0],[1,1,0],[0,0.25,0],[0,0.5,0],[0,0.75,0],[1,0.25,0],[1,0.5,0],[1,0.75,0]];outlineConnect=0;fontColor=#232F3E;fillColor=#8C4FFF;strokeColor=#ffffff;dashed=0;verticalLabelPosition=bottom;verticalAlign=top;align=center;html=1;fontSize=12;fontStyle=0;aspect=fixed;shape=mxgraph.aws4.resourceIcon;resIcon=mxgraph.aws4.athena;" vertex="1" parent="-HQPXXyvILlcxyO6ic3q-17">
          <mxGeometry x="440" y="30" width="80" height="80" as="geometry" />
        </mxCell>
        <mxCell id="-HQPXXyvILlcxyO6ic3q-5" value="" style="endArrow=classic;html=1;rounded=0;entryX=0.5;entryY=0;entryDx=0;entryDy=0;entryPerimeter=0;exitX=0.5;exitY=1;exitDx=0;exitDy=0;exitPerimeter=0;jumpSize=11;strokeWidth=3;" edge="1" parent="-HQPXXyvILlcxyO6ic3q-17">
          <mxGeometry width="50" height="50" relative="1" as="geometry">
            <mxPoint x="20" y="112" as="sourcePoint" />
            <mxPoint x="20" y="230" as="targetPoint" />
          </mxGeometry>
        </mxCell>
        <mxCell id="-HQPXXyvILlcxyO6ic3q-13" value="Access &lt;br&gt;configuration&lt;br&gt;files" style="edgeLabel;html=1;align=center;verticalAlign=middle;resizable=0;points=[];" vertex="1" connectable="0" parent="-HQPXXyvILlcxyO6ic3q-5">
          <mxGeometry relative="1" as="geometry">
            <mxPoint x="-50" as="offset" />
          </mxGeometry>
        </mxCell>
        <mxCell id="-HQPXXyvILlcxyO6ic3q-6" value="" style="endArrow=classic;html=1;rounded=0;entryX=0;entryY=0.5;entryDx=0;entryDy=0;entryPerimeter=0;jumpSize=11;strokeWidth=3;" edge="1" parent="-HQPXXyvILlcxyO6ic3q-17" target="-HQPXXyvILlcxyO6ic3q-3">
          <mxGeometry width="50" height="50" relative="1" as="geometry">
            <mxPoint x="80" y="70" as="sourcePoint" />
            <mxPoint x="170" y="88" as="targetPoint" />
          </mxGeometry>
        </mxCell>
        <mxCell id="-HQPXXyvILlcxyO6ic3q-14" value="Raw data" style="edgeLabel;html=1;align=center;verticalAlign=middle;resizable=0;points=[];" vertex="1" connectable="0" parent="-HQPXXyvILlcxyO6ic3q-6">
          <mxGeometry relative="1" as="geometry">
            <mxPoint y="-40" as="offset" />
          </mxGeometry>
        </mxCell>
        <mxCell id="-HQPXXyvILlcxyO6ic3q-7" value="" style="endArrow=classic;html=1;rounded=0;jumpSize=11;strokeWidth=3;" edge="1" parent="-HQPXXyvILlcxyO6ic3q-17">
          <mxGeometry width="50" height="50" relative="1" as="geometry">
            <mxPoint x="318" y="54" as="sourcePoint" />
            <mxPoint x="440" y="54" as="targetPoint" />
          </mxGeometry>
        </mxCell>
        <mxCell id="-HQPXXyvILlcxyO6ic3q-8" value="" style="endArrow=classic;html=1;rounded=0;jumpSize=11;strokeWidth=3;" edge="1" parent="-HQPXXyvILlcxyO6ic3q-17">
          <mxGeometry width="50" height="50" relative="1" as="geometry">
            <mxPoint x="440" y="80" as="sourcePoint" />
            <mxPoint x="318" y="81" as="targetPoint" />
          </mxGeometry>
        </mxCell>
        <mxCell id="-HQPXXyvILlcxyO6ic3q-9" value="" style="sketch=0;points=[[0,0,0],[0.25,0,0],[0.5,0,0],[0.75,0,0],[1,0,0],[0,1,0],[0.25,1,0],[0.5,1,0],[0.75,1,0],[1,1,0],[0,0.25,0],[0,0.5,0],[0,0.75,0],[1,0.25,0],[1,0.5,0],[1,0.75,0]];outlineConnect=0;fontColor=#232F3E;fillColor=#8C4FFF;strokeColor=#ffffff;dashed=0;verticalLabelPosition=bottom;verticalAlign=top;align=center;html=1;fontSize=12;fontStyle=0;aspect=fixed;shape=mxgraph.aws4.resourceIcon;resIcon=mxgraph.aws4.quicksight;" vertex="1" parent="-HQPXXyvILlcxyO6ic3q-17">
          <mxGeometry x="680" y="30" width="80" height="80" as="geometry" />
        </mxCell>
        <mxCell id="-HQPXXyvILlcxyO6ic3q-10" value="" style="endArrow=classic;html=1;rounded=0;jumpSize=11;strokeWidth=3;entryX=0;entryY=0.5;entryDx=0;entryDy=0;entryPerimeter=0;exitX=1;exitY=0.5;exitDx=0;exitDy=0;exitPerimeter=0;" edge="1" parent="-HQPXXyvILlcxyO6ic3q-17" source="-HQPXXyvILlcxyO6ic3q-4" target="-HQPXXyvILlcxyO6ic3q-9">
          <mxGeometry width="50" height="50" relative="1" as="geometry">
            <mxPoint x="480" y="110" as="sourcePoint" />
            <mxPoint x="480" y="270" as="targetPoint" />
          </mxGeometry>
        </mxCell>
        <mxCell id="-HQPXXyvILlcxyO6ic3q-11" value="" style="endArrow=classic;html=1;rounded=0;entryX=0.5;entryY=0;entryDx=0;entryDy=0;entryPerimeter=0;exitX=0.5;exitY=1;exitDx=0;exitDy=0;exitPerimeter=0;jumpSize=11;strokeWidth=3;" edge="1" parent="-HQPXXyvILlcxyO6ic3q-17">
          <mxGeometry width="50" height="50" relative="1" as="geometry">
            <mxPoint x="60" y="230" as="sourcePoint" />
            <mxPoint x="60" y="112" as="targetPoint" />
          </mxGeometry>
        </mxCell>
        <mxCell id="-HQPXXyvILlcxyO6ic3q-12" value="Store raw data" style="edgeLabel;html=1;align=center;verticalAlign=middle;resizable=0;points=[];" vertex="1" connectable="0" parent="-HQPXXyvILlcxyO6ic3q-11">
          <mxGeometry relative="1" as="geometry">
            <mxPoint x="50" as="offset" />
          </mxGeometry>
        </mxCell>
        <mxCell id="-HQPXXyvILlcxyO6ic3q-15" value="Consume and&lt;br&gt;write data on&lt;br&gt;tables" style="text;html=1;align=center;verticalAlign=middle;resizable=0;points=[];autosize=1;strokeColor=none;fillColor=none;" vertex="1" parent="-HQPXXyvILlcxyO6ic3q-17">
          <mxGeometry x="330" width="100" height="60" as="geometry" />
        </mxCell>
        <mxCell id="-HQPXXyvILlcxyO6ic3q-16" value="Update analytics&lt;br&gt;&lt;div&gt;dashboards&lt;/div&gt;" style="text;html=1;align=center;verticalAlign=middle;resizable=0;points=[];autosize=1;strokeColor=none;fillColor=none;" vertex="1" parent="-HQPXXyvILlcxyO6ic3q-17">
          <mxGeometry x="535" y="10" width="110" height="40" as="geometry" />
        </mxCell>
      </root>
    </mxGraphModel>
  </diagram>
</mxfile>
